HIERARCHY
ROOT SpineBase
{
  OFFSET 0.000000 0.000000 0.000000
  CHANNELS 6 Xposition Yposition Zposition Zrotation Xrotation Yrotation
  JOINT SpineMid
  {
    OFFSET 0.000000 25.888097 0.000000
    CHANNELS 3 Zrotation Xrotation Yrotation
    JOINT SpineShoulder
    {
      OFFSET 0.047733 19.315608 -0.652399
      CHANNELS 3 Zrotation Xrotation Yrotation
      JOINT Neck
      {
        OFFSET 0.046843 6.416196 -0.497159
        CHANNELS 3 Zrotation Xrotation Yrotation
        JOINT Head
        {
          OFFSET -1.620471 14.946736 -2.183471
          CHANNELS 3 Zrotation Xrotation Yrotation
          End Site
          {
            OFFSET 0 0 0
          }
        }
      }
      JOINT ShoulderLeft
      {
        OFFSET -16.988532 -2.927044 1.443214
        CHANNELS 3 Zrotation Xrotation Yrotation
        JOINT ElbowLeft
        {
          OFFSET -5.929916 -21.754786 2.774938
          CHANNELS 3 Zrotation Xrotation Yrotation
          JOINT WristLeft
          {
            OFFSET 4.881516 -16.889691 -19.475336
            CHANNELS 3 Zrotation Xrotation Yrotation
            JOINT HandLeft
            {
              OFFSET 1.778014 -5.511111 -8.398123
              CHANNELS 3 Zrotation Xrotation Yrotation
              JOINT HandTipLeft
              {
                OFFSET 2.253959 -5.969726 -3.756262
                CHANNELS 3 Zrotation Xrotation Yrotation
                End Site
                {
                  OFFSET 0 0 0
                }
              }
              JOINT ThumbLeft
              {
                OFFSET 3.542933 3.718999 -1.284129
                CHANNELS 3 Zrotation Xrotation Yrotation
                End Site
                {
                  OFFSET 0 0 0
                }
              }
            }
          }
        }
      }
      JOINT ShoulderRight
      {
        OFFSET 16.369700 -2.130970 -1.848486
        CHANNELS 3 Zrotation Xrotation Yrotation
        JOINT ElbowRight
        {
          OFFSET 10.968364 -20.753557 -0.584178
          CHANNELS 3 Zrotation Xrotation Yrotation
          JOINT WristRight
          {
            OFFSET -9.033647 -18.646932 -14.985741
            CHANNELS 3 Zrotation Xrotation Yrotation
            JOINT HandRight
            {
              OFFSET -2.297113 -3.861203 -5.686022
              CHANNELS 3 Zrotation Xrotation Yrotation
              JOINT HandTipRight
              {
                OFFSET -0.749582 -4.473060 -4.833665
                CHANNELS 3 Zrotation Xrotation Yrotation
                End Site
                {
                  OFFSET 0 0 0
                }
              }
              JOINT ThumbRight
              {
                OFFSET -1.251629 1.497486 -2.284501
                CHANNELS 3 Zrotation Xrotation Yrotation
                End Site
                {
                  OFFSET 0 0 0
                }
              }
            }
          }
        }
      }
    }
  }
  JOINT HipLeft
  {
    OFFSET -7.957926 0.765711 -2.176190
    CHANNELS 3 Zrotation Xrotation Yrotation
    JOINT KneeLeft
    {
      OFFSET -2.645610 -38.518630 -3.767322
      CHANNELS 3 Zrotation Xrotation Yrotation
      JOINT AnkleLeft
      {
        OFFSET -2.089833 -33.406860 0.850397
        CHANNELS 3 Zrotation Xrotation Yrotation
        JOINT FootLeft
        {
          OFFSET 0.556831 -7.550362 -6.511428
          CHANNELS 3 Zrotation Xrotation Yrotation
          End Site
          {
            OFFSET 0 0 0
          }
        }
      }
    }
  }
  JOINT HipRight
  {
    OFFSET 8.365480 0.644562 -3.994184
    CHANNELS 3 Zrotation Xrotation Yrotation
    JOINT KneeRight
    {
      OFFSET 3.062005 -36.111009 3.344770
      CHANNELS 3 Zrotation Xrotation Yrotation
      JOINT AnkleRight
      {
        OFFSET -2.954550 -36.082743 12.014647
        CHANNELS 3 Zrotation Xrotation Yrotation
        JOINT FootRight
        {
          OFFSET -0.480525 -2.531476 -10.683017
          CHANNELS 3 Zrotation Xrotation Yrotation
          End Site
          {
            OFFSET 0 0 0
          }
        }
      }
    }
  }
}
MOTION
Frames: 5
Frame Time: 0.033333
-25.849691 79.178007 371.440460 -0.000000 0.000000 6.355038 0.000000 0.000000 -6.355038 -0.000000 0.000000 0.000000 -0.000000 0.000000 0.000000 0.000000 0.000000 0.000000 -0.000000 0.000000 0.000000 -0.000000 0.000000 0.000000 -0.000000 0.000000 0.000000 -0.000000 0.000000 0.000000 0.000000 0.000000 0.000000 0.000000 0.000000 0.000000 -0.000000 0.000000 0.000000 -0.000000 0.000000 0.000000 -0.000000 0.000000 0.000000 -0.000000 0.000000 0.000000 0.000000 0.000000 0.000000 0.000000 0.000000 0.000000 0.000000 0.000000 -6.355038 -0.000000 0.000000 0.000000 -0.000000 0.000000 0.000000 0.000000 0.000000 0.000000 0.000000 0.000000 -6.355038 -0.000000 0.000000 0.000000 -0.000000 0.000000 0.000000 0.000000 0.000000 0.000000
-25.857634 79.258402 371.320250 0.015537 -0.025759 6.300815 -0.012616 0.027309 -6.300808 -0.000000 0.000000 0.000000 -0.000000 0.000000 0.000000 0.000000 0.000000 0.000000 -0.000000 0.000000 0.000000 -0.000000 0.000000 0.000000 -0.000000 0.000000 0.000000 -1.351057 0.105533 0.894686 0.000000 0.000000 0.000000 0.000000 0.000000 0.000000 -0.000000 0.000000 0.000000 -0.000000 0.000000 0.000000 -0.536229 -0.251857 0.938720 1.289829 -1.457085 -1.499896 0.000000 0.000000 0.000000 0.000000 0.000000 0.000000 -0.012616 0.027309 -6.300808 -0.000000 0.000000 0.000000 -0.000000 0.000000 0.000000 0.000000 0.000000 0.000000 -0.012616 0.027309 -6.300808 -0.000000 0.000000 0.000000 -0.000000 0.000000 0.000000 0.000000 0.000000 0.000000
-25.875673 79.328973 371.204771 0.023706 -0.058312 6.292569 -0.017172 0.060559 -6.292548 -0.000000 0.000000 0.000000 -0.000000 0.000000 0.000000 0.000000 0.000000 0.000000 -0.000000 0.000000 0.000000 0.298328 1.263986 0.017805 -0.044770 -2.197902 -0.713625 -2.559732 1.068460 2.254193 0.000000 0.000000 0.000000 0.000000 0.000000 0.000000 -0.000000 0.000000 0.000000 0.424222 -0.979479 0.138422 -1.487120 0.345532 1.831824 2.143982 -2.193222 -2.748809 0.000000 0.000000 0.000000 0.000000 0.000000 0.000000 -0.017172 0.060559 -6.292548 -0.000000 0.000000 0.000000 0.684447 0.112459 -0.581898 0.000000 0.000000 0.000000 -0.017172 0.060559 -6.292548 -0.000000 0.000000 0.000000 -0.000000 0.000000 0.000000 0.000000 0.000000 0.000000
-25.903808 79.389719 371.094024 0.024501 -0.097661 6.330126 -0.013584 0.099767 -6.330093 -0.000000 0.000000 0.000000 0.138957 0.834268 0.109840 0.000000 0.000000 0.000000 -0.000000 0.000000 0.000000 0.383586 1.687777 0.039178 -0.122263 -3.217390 -0.952412 -3.136147 1.675128 2.876409 0.000000 0.000000 0.000000 0.000000 0.000000 0.000000 -0.000000 0.000000 0.000000 0.586833 -1.437242 0.235015 -2.124529 0.288472 2.777516 2.668368 -2.390728 -3.785297 0.000000 0.000000 0.000000 0.000000 0.000000 0.000000 -0.013584 0.099767 -6.330093 -0.000000 0.000000 0.000000 0.901149 0.126751 -0.767626 0.000000 0.000000 0.000000 -0.013584 0.099767 -6.330093 -0.000000 0.000000 0.000000 -0.000000 0.000000 0.000000 0.000000 0.000000 0.000000
-25.942040 79.440639 370.988009 0.017918 -0.143807 6.413483 -0.001742 0.144909 -6.413458 -0.000000 0.000000 0.000000 0.227181 1.093620 0.149766 0.000000 0.000000 0.000000 -0.000000 0.000000 0.000000 0.426324 1.973277 0.069980 -0.242098 -4.188989 -1.108722 -3.259436 2.360644 3.157888 0.000000 0.000000 0.000000 0.000000 0.000000 0.000000 -0.000000 0.000000 0.000000 0.705134 -1.851962 0.347528 -2.620170 0.077183 3.644138 2.893157 -2.154004 -4.567924 0.000000 0.000000 0.000000 0.000000 0.000000 0.000000 -0.001742 0.144909 -6.413458 -0.000000 0.000000 0.000000 1.031534 0.113833 -0.880892 0.000000 0.000000 0.000000 -0.001742 0.144909 -6.413458 -0.000000 0.000000 0.000000 -0.000000 0.000000 0.000000 0.000000 0.000000 0.000000
